<svg id="Слой_1" data-name="Слой 1" xmlns="http://www.w3.org/2000/svg" viewBox="0 0 1300 1264.29"><defs><style>.cls-1{fill:none;}.cls-2{fill:#252926;fill-rule:evenodd;}</style></defs><title>hito_logo_without_bomb (3)</title><rect class="cls-1" x="2" y="414.55" width="1300" height="431"/><path class="cls-2" d="M1033.7,826.05h-18.5a142.93,142.93,0,0,1-142.9-142.9v-15a142.93,142.93,0,0,1,142.9-142.9h18.5c80,0,142.9,63.6,142.9,142.9v15C1176.7,762.05,1112.6,826.05,1033.7,826.05ZM282.8,603.15a30.39,30.39,0,0,0-30.4,30.4v138.6a49.51,49.51,0,0,1-49.4,49.4h0a49.27,49.27,0,0,1-49.3-49.3V482.45a49.51,49.51,0,0,1,49.4-49.4h0a49.51,49.51,0,0,1,49.4,49.4v43c2.3-.2,4.7-.2,7.1-.2H325a105.84,105.84,0,0,1,105.8,105.8v141.1a49.27,49.27,0,0,1-49.3,49.3h0a49.51,49.51,0,0,1-49.4-49.4V633.65a30.39,30.39,0,0,0-30.4-30.4H282.8Zm518.8,140.5a39,39,0,0,1,39,39h0a39,39,0,0,1-39,39H762.3a105.84,105.84,0,0,1-105.8-105.8v-194a49.51,49.51,0,0,1,49.4-49.4h0a49.51,49.51,0,0,1,49.4,49.4v34.8c2.3-.2,4.7-.2,7.1-.2h39.3a39,39,0,0,1,39,39h0a39,39,0,0,1-39,39h-16a30.39,30.39,0,0,0-30.4,30.4v48.4a30.39,30.39,0,0,0,30.4,30.4ZM593,575.25a49.3,49.3,0,1,0-98.6,0V772a49.3,49.3,0,1,0,98.6,0Zm482.6,79.1a51.1,51.1,0,1,0-102.2,0v42.8a51.1,51.1,0,1,0,102.2,0Zm-532-257.8a53.9,53.9,0,1,1-53.9,53.9A53.92,53.92,0,0,1,543.6,396.55Z"/></svg>